<svg width="480" height="480" viewBox="0 0 480 480" fill="none" xmlns="http://www.w3.org/2000/svg">
<path d="M443.901 398.2C418.622 432.361 386.677 447.838 369.161 456.073C268.329 503.492 122.81 481.054 47.8158 383.172C37.416 369.598 -1.83605 315.146 0.0668827 237.803C2.65005 133.216 79.637 20.6653 193.365 2.48774C306.432 -15.5835 389.686 70.1967 404.222 85.8762C482.292 170.046 507.679 312.01 443.901 398.2Z" fill="#F4F7FA"/>
<path d="M194.395 417.008C149.253 378.028 148.606 302.527 173.43 284.181C186.346 274.638 200.801 284.507 212.806 272.783C226.108 259.795 214.933 241.259 219.991 202.92C222.605 183.111 227.344 147.198 249.499 136.105C271.47 125.115 288.662 149.509 312.957 138.983C335.93 129.039 329.29 103.439 358.056 82.5287C360.73 80.5844 391.105 59.0618 413.094 70.3418C435.435 81.8018 441.232 123.071 427.243 147.686C414.534 170.051 389.228 172.098 389.608 185.852C390.027 201.01 420.894 203.49 422.826 219.02C425.619 241.467 363.164 252.661 359.022 287.473C356.59 307.943 381.561 316.185 371.165 340.488C354.408 379.664 343.681 387.312 318.559 402.923C282.152 425.545 233.521 450.795 194.395 417.008Z" fill="#D8DEE8"/>
<mask id="mask0_414_8" style="mask-type:luminance" maskUnits="userSpaceOnUse" x="157" y="67" width="278" height="367">
<path d="M194.395 417.008C149.253 378.028 148.606 302.527 173.43 284.181C186.346 274.638 200.801 284.507 212.806 272.783C226.108 259.795 214.933 241.259 219.991 202.92C222.605 183.111 227.344 147.198 249.499 136.105C271.47 125.115 288.662 149.509 312.957 138.983C335.93 129.039 329.29 103.439 358.056 82.5287C360.73 80.5844 391.105 59.0618 413.094 70.3418C435.435 81.8018 441.232 123.071 427.243 147.686C414.534 170.051 389.228 172.098 389.608 185.852C390.027 201.01 420.894 203.49 422.826 219.02C425.619 241.467 363.164 252.661 359.022 287.473C356.59 307.943 381.561 316.185 371.165 340.488C354.408 379.664 343.681 387.312 318.559 402.923C282.152 425.545 233.521 450.795 194.395 417.008Z" fill="white"/>
</mask>
<g mask="url(#mask0_414_8)">
<g style="mix-blend-mode:soft-light" opacity="0.7">
<path d="M216.36 451.549L214.57 450.928C238.692 381.976 265.319 318.334 293.696 261.773C316.407 216.509 340.293 175.659 364.687 140.343C406.257 80.1623 435.319 56.6079 435.607 56.3765L436.793 57.8458C436.505 58.0773 407.6 81.5185 366.169 141.515C327.928 196.907 270.895 295.653 216.36 451.549Z" fill="white"/>
<path d="M360.905 146.25C355.345 88.0689 378.157 42.925 378.388 42.4844L380.074 43.3416C379.84 43.7806 357.28 88.4598 362.791 146.072L360.905 146.25Z" fill="white"/>
<path d="M289.463 269.8C263.898 211.441 258.418 171.118 258.322 147.569C258.218 121.916 264.139 110.271 264.39 109.787L266.073 110.655C266.013 110.771 260.082 122.504 260.218 147.771C260.342 171.118 265.82 211.11 291.198 269.046L289.463 269.8Z" fill="white"/>
<path d="M236.415 392.896C169.833 303.481 172.669 237.912 172.709 237.255L174.603 237.359C174.603 237.531 173.914 254.522 181.836 282.663C188.819 307.441 204.224 346.485 237.939 391.768L236.415 392.896Z" fill="white"/>
<path d="M318.891 253.95C312.242 254.512 305.566 254.692 298.897 254.489L298.956 252.603C343.307 253.991 382.965 237.407 408.423 223.25C436.02 207.901 453.317 192.045 453.487 191.874L454.775 193.257C454.603 193.417 437.139 209.43 409.346 224.887C387.57 237.009 355.473 250.881 318.891 253.95Z" fill="white"/>
<path d="M257.165 369.911C253.636 370.208 250.049 370.38 246.404 370.426L246.38 368.54C292.637 367.962 329.308 346.012 351.93 327.701C376.458 307.845 390.188 287.898 390.333 287.697L391.9 288.757C391.762 288.959 377.875 309.136 353.132 329.165C332.051 346.227 298.901 366.41 257.165 369.911Z" fill="white"/>
</g>
</g>
<path d="M248.867 155.52L255.12 327.955C255.671 343.134 243.754 356.658 228.269 358.131L78.4898 372.448C75.7206 372.712 72.9297 372.65 70.1754 372.261C56.7068 370.226 45.9832 359.721 45.4907 346.133L38.8261 162.396C38.6849 158.471 39.8439 154.946 41.2371 151.479C45.5424 140.678 56.7361 133.115 69.738 132.791L219.854 129.156C235.372 128.779 248.317 140.342 248.867 155.52Z" fill="url(#paint0_linear_414_8)"/>
<path d="M271.649 327.271C272.198 342.398 260.412 355.843 245.06 357.313L96.748 371.535C79.768 373.16 65.664 361.419 65.0802 345.302L58.4414 162.289C57.8576 146.172 71.1041 132.771 88.1272 132.36L236.874 128.749C244.211 128.554 251.327 131.254 256.674 136.259C262.02 141.265 265.163 148.171 265.418 155.474L271.649 327.271Z" fill="url(#paint1_linear_414_8)"/>
<path d="M259.279 155.241C258.86 143.68 248.793 134.558 237.04 134.867L87.9135 138.766C74.9461 139.109 64.715 149.321 65.161 161.585L71.7533 343.566C72.1976 355.828 82.9918 364.79 95.93 363.582L244.892 349.694C256.618 348.6 265.918 338.347 265.499 326.786L259.279 155.241Z" fill="url(#paint2_linear_414_8)"/>
<path style="mix-blend-mode:multiply" opacity="0.2" d="M253.334 160.332C253.139 155.056 250.853 150.072 246.977 146.469C243.101 142.866 237.95 140.938 232.65 141.105L92.0204 145.049C79.8193 145.392 69.8276 155.041 70.2461 166.595L76.4577 337.857C76.8762 349.412 87.5808 357.873 99.7544 356.76L239.784 343.966C250.882 342.951 259.604 333.271 259.208 322.343L253.334 160.332Z" fill="url(#paint3_linear_414_8)"/>
<path opacity="0.7" d="M234.265 231.911C233.886 221.479 229.409 211.758 221.654 204.533C213.921 197.306 203.651 193.385 193.048 193.613C183.194 193.8 173.979 197.445 166.836 203.938C159.283 198.073 149.928 194.984 140.351 195.194C129.847 195.396 120.063 199.411 112.653 206.547C112.348 206.835 112.055 207.123 111.764 207.424C96.6374 222.918 96.9439 247.201 112.453 262.558L151.771 298.551C156.844 303.111 163.504 305.518 170.333 305.262C177.163 305.006 183.622 302.106 188.336 297.18L223.603 259.964C223.623 259.935 223.645 259.908 223.669 259.883C223.798 259.758 223.917 259.621 224.036 259.496L225.241 258.22L225.195 258.189C231.409 250.865 234.644 241.491 234.265 231.911ZM209.566 254.044L190.51 254.615C189.953 254.63 189.38 253.49 188.925 253.191L180.606 247.287L175.372 256.031L161.514 279.167C161.049 279.954 160.199 280.207 159.293 280.238C158.794 280.248 158.295 280.224 157.8 280.166C156.641 279.882 155.069 278.894 155.026 277.732L153.381 232.284L147.806 242.889L143.279 251.228C142.823 252.015 142.332 252.682 141.411 252.71L107.917 253.696C106.424 253.738 105.181 252.41 105.127 250.952C105.074 249.495 106.267 248.096 107.762 248.055L139.828 247.146L143.758 240.528L154.9 221.745C155.165 221.261 155.586 220.879 156.095 220.662C156.604 220.444 157.172 220.403 157.707 220.545C158.874 220.842 159.544 221.85 159.587 223.01L161.235 268.471L170.258 253.545L177.318 241.791C177.507 241.482 177.757 241.215 178.053 241.005C178.349 240.796 178.685 240.648 179.04 240.572C179.752 240.401 180.554 241.354 181.16 241.75L191.135 249.029L209.358 248.502C210.81 248.459 212.031 249.766 212.082 251.194C212.134 252.622 211.018 254.001 209.566 254.044Z" fill="white"/>
<g style="mix-blend-mode:soft-light" opacity="0.5">
<path d="M216.41 306.23C188.143 278.808 153.737 288.44 138.598 260.481C122.361 230.49 153.148 203.152 141.051 165.324C137.646 154.68 131.603 145.595 124.048 137.823L87.9184 138.767C74.9509 139.11 64.7199 149.322 65.1659 161.586L71.753 343.566C72.1973 355.828 82.9915 364.79 95.9297 363.582L240.022 350.152C234.938 329.051 225.882 315.424 216.41 306.23Z" fill="white"/>
</g>
<path d="M416.118 107.555C415.883 107.555 415.65 107.509 415.434 107.42C415.217 107.33 415.02 107.199 414.854 107.034C414.688 106.869 414.556 106.672 414.466 106.456C414.376 106.241 414.33 106.009 414.33 105.775V102.214C414.33 101.742 414.518 101.29 414.854 100.956C415.189 100.622 415.644 100.435 416.118 100.435C416.592 100.435 417.046 100.622 417.382 100.956C417.717 101.29 417.905 101.742 417.905 102.214V105.775C417.905 106.009 417.859 106.241 417.769 106.456C417.679 106.672 417.548 106.869 417.382 107.034C417.216 107.199 417.019 107.33 416.802 107.42C416.585 107.509 416.352 107.555 416.118 107.555Z" fill="white"/>
<path d="M416.118 151.416C415.644 151.416 415.189 151.229 414.854 150.895C414.518 150.561 414.33 150.109 414.33 149.637V142.326C414.33 141.854 414.518 141.401 414.854 141.067C415.189 140.734 415.644 140.546 416.118 140.546C416.592 140.546 417.046 140.734 417.382 141.067C417.717 141.401 417.905 141.854 417.905 142.326V149.644C417.903 150.114 417.714 150.565 417.379 150.898C417.044 151.23 416.591 151.416 416.118 151.416ZM416.118 136.795C415.644 136.795 415.189 136.607 414.854 136.274C414.518 135.94 414.33 135.487 414.33 135.015V127.697C414.33 127.225 414.518 126.773 414.854 126.439C415.189 126.105 415.644 125.918 416.118 125.918C416.592 125.918 417.046 126.105 417.382 126.439C417.717 126.773 417.905 127.225 417.905 127.697V135.008C417.906 135.243 417.861 135.475 417.771 135.691C417.682 135.908 417.55 136.105 417.384 136.271C417.218 136.437 417.021 136.569 416.803 136.659C416.586 136.749 416.353 136.795 416.118 136.795ZM416.118 122.175C415.644 122.175 415.189 121.987 414.854 121.654C414.518 121.32 414.33 120.867 414.33 120.395V113.084C414.33 112.612 414.518 112.16 414.854 111.826C415.189 111.492 415.644 111.305 416.118 111.305C416.592 111.305 417.046 111.492 417.382 111.826C417.717 112.16 417.905 112.612 417.905 113.084V120.395C417.905 120.867 417.717 121.32 417.382 121.654C417.046 121.987 416.592 122.175 416.118 122.175Z" fill="white"/>
<path d="M412.543 162.392C412.069 162.399 411.612 162.218 411.272 161.889C410.931 161.56 410.737 161.11 410.73 160.638C410.723 160.166 410.905 159.711 411.235 159.372C411.565 159.034 412.017 158.84 412.491 158.833L414.331 158.778V156.945C414.331 156.473 414.519 156.021 414.854 155.687C415.189 155.353 415.644 155.166 416.118 155.166C416.592 155.166 417.047 155.353 417.382 155.687C417.717 156.021 417.906 156.473 417.906 156.945V160.505C417.906 160.967 417.724 161.412 417.401 161.744C417.077 162.076 416.636 162.27 416.172 162.284L412.598 162.391L412.543 162.392Z" fill="white"/>
<path d="M176.089 169.48C175.623 169.474 175.178 169.288 174.848 168.961C174.519 168.633 174.33 168.191 174.323 167.727C174.316 167.263 174.492 166.815 174.811 166.478C175.131 166.141 175.57 165.942 176.035 165.922L182.989 165.713C183.225 165.704 183.46 165.742 183.681 165.824C183.902 165.907 184.104 166.031 184.276 166.192C184.448 166.352 184.587 166.544 184.684 166.758C184.781 166.972 184.835 167.203 184.842 167.438C184.849 167.672 184.81 167.906 184.726 168.125C184.642 168.344 184.515 168.545 184.353 168.715C184.191 168.886 183.997 169.023 183.781 169.118C183.566 169.213 183.334 169.265 183.098 169.271L176.144 169.48H176.089ZM189.998 169.063C189.533 169.058 189.088 168.871 188.758 168.544C188.428 168.216 188.24 167.774 188.233 167.31C188.226 166.847 188.401 166.399 188.721 166.062C189.04 165.725 189.48 165.525 189.945 165.506L196.899 165.296C197.134 165.288 197.369 165.326 197.59 165.408C197.811 165.49 198.013 165.615 198.186 165.775C198.358 165.935 198.496 166.128 198.593 166.342C198.691 166.556 198.744 166.786 198.751 167.021C198.759 167.256 198.719 167.489 198.635 167.709C198.551 167.928 198.425 168.128 198.262 168.299C198.1 168.469 197.906 168.606 197.691 168.701C197.475 168.797 197.243 168.849 197.007 168.854L190.052 169.063H189.998ZM203.906 168.647C203.432 168.654 202.975 168.473 202.635 168.144C202.294 167.815 202.1 167.365 202.093 166.893C202.086 166.421 202.268 165.965 202.598 165.627C202.928 165.288 203.38 165.094 203.854 165.087L210.808 164.88C211.044 164.871 211.279 164.908 211.501 164.99C211.722 165.072 211.924 165.197 212.097 165.358C212.269 165.518 212.408 165.711 212.506 165.925C212.603 166.139 212.656 166.37 212.664 166.605C212.671 166.84 212.631 167.074 212.547 167.293C212.462 167.513 212.335 167.714 212.173 167.884C212.01 168.054 211.815 168.191 211.6 168.286C211.384 168.381 211.151 168.432 210.915 168.438L203.961 168.647H203.906ZM217.816 168.23C217.342 168.237 216.884 168.056 216.544 167.727C216.204 167.398 216.009 166.948 216.002 166.476C215.995 166.004 216.177 165.549 216.508 165.21C216.838 164.872 217.29 164.678 217.764 164.671L224.718 164.463C225.19 164.454 225.648 164.629 225.992 164.952C226.336 165.274 226.539 165.718 226.559 166.188C226.573 166.66 226.398 167.118 226.073 167.462C225.747 167.805 225.299 168.007 224.825 168.021L217.871 168.228L217.816 168.23ZM231.725 167.813C231.49 167.817 231.257 167.774 231.039 167.688C230.821 167.602 230.622 167.474 230.453 167.311C230.285 167.148 230.15 166.954 230.057 166.739C229.964 166.525 229.914 166.294 229.911 166.06C229.907 165.827 229.95 165.595 230.037 165.377C230.123 165.16 230.252 164.962 230.416 164.794C230.579 164.626 230.774 164.492 230.99 164.4C231.205 164.307 231.437 164.258 231.672 164.254L238.626 164.045C239.098 164.036 239.556 164.211 239.9 164.534C240.244 164.857 240.448 165.301 240.466 165.771C240.48 166.243 240.306 166.701 239.98 167.045C239.655 167.388 239.206 167.589 238.732 167.603L231.778 167.812L231.725 167.813ZM245.635 167.395C245.169 167.389 244.724 167.203 244.394 166.876C244.064 166.548 243.876 166.106 243.869 165.642C243.862 165.179 244.037 164.731 244.357 164.394C244.677 164.056 245.116 163.857 245.581 163.837L252.537 163.628C252.773 163.619 253.008 163.657 253.229 163.739C253.45 163.821 253.653 163.946 253.825 164.106C253.998 164.266 254.137 164.459 254.234 164.673C254.331 164.887 254.385 165.119 254.392 165.353C254.399 165.588 254.359 165.822 254.275 166.042C254.191 166.261 254.064 166.462 253.901 166.632C253.739 166.803 253.544 166.939 253.328 167.034C253.112 167.129 252.879 167.181 252.644 167.186L245.69 167.395H245.635ZM259.544 166.978C259.078 166.973 258.633 166.786 258.304 166.459C257.974 166.132 257.786 165.689 257.779 165.225C257.772 164.762 257.947 164.314 258.266 163.977C258.586 163.64 259.025 163.44 259.491 163.421L266.445 163.212C266.68 163.203 266.915 163.241 267.136 163.323C267.357 163.405 267.559 163.53 267.731 163.69C267.903 163.85 268.042 164.043 268.139 164.257C268.236 164.471 268.29 164.702 268.297 164.936C268.304 165.171 268.265 165.404 268.181 165.624C268.097 165.843 267.97 166.044 267.808 166.214C267.646 166.384 267.452 166.521 267.236 166.616C267.021 166.712 266.789 166.764 266.553 166.769L259.597 166.978H259.544ZM273.452 166.562C272.978 166.569 272.52 166.388 272.18 166.059C271.84 165.73 271.645 165.28 271.638 164.808C271.632 164.336 271.813 163.88 272.144 163.542C272.474 163.203 272.926 163.009 273.4 163.002L280.354 162.795C280.59 162.786 280.825 162.824 281.046 162.906C281.267 162.988 281.47 163.112 281.643 163.273C281.815 163.433 281.954 163.626 282.051 163.84C282.148 164.054 282.202 164.285 282.209 164.52C282.216 164.755 282.177 164.989 282.092 165.209C282.008 165.428 281.881 165.629 281.718 165.799C281.556 165.969 281.361 166.106 281.145 166.201C280.929 166.296 280.697 166.348 280.461 166.353L273.507 166.56L273.452 166.562ZM287.361 166.145C286.887 166.152 286.43 165.971 286.089 165.643C285.749 165.314 285.554 164.864 285.547 164.392C285.54 163.92 285.722 163.465 286.052 163.126C286.382 162.787 286.834 162.593 287.308 162.586L294.263 162.378C294.499 162.369 294.735 162.407 294.956 162.489C295.177 162.571 295.38 162.696 295.552 162.856C295.725 163.017 295.863 163.209 295.961 163.423C296.058 163.638 296.112 163.869 296.119 164.104C296.126 164.338 296.086 164.572 296.002 164.792C295.918 165.011 295.79 165.212 295.628 165.382C295.465 165.553 295.271 165.689 295.055 165.784C294.839 165.879 294.606 165.931 294.37 165.936L287.416 166.143L287.361 166.145ZM301.271 165.729C301.036 165.732 300.803 165.689 300.585 165.603C300.366 165.517 300.167 165.389 299.999 165.226C299.83 165.063 299.696 164.869 299.603 164.654C299.51 164.44 299.46 164.209 299.457 163.975C299.453 163.742 299.496 163.51 299.582 163.292C299.669 163.075 299.798 162.877 299.961 162.709C300.125 162.541 300.32 162.407 300.535 162.315C300.751 162.222 300.983 162.173 301.217 162.169L308.173 161.96C308.647 161.946 309.107 162.12 309.453 162.444C309.798 162.767 310 163.215 310.014 163.687C310.028 164.159 309.853 164.617 309.528 164.961C309.203 165.304 308.754 165.505 308.28 165.519L301.326 165.727L301.271 165.729ZM315.179 165.31C314.713 165.304 314.268 165.118 313.939 164.79C313.609 164.462 313.421 164.02 313.414 163.556C313.408 163.093 313.583 162.645 313.903 162.308C314.222 161.971 314.662 161.772 315.127 161.753L322.081 161.543H322.136C322.601 161.549 323.046 161.735 323.376 162.063C323.706 162.39 323.894 162.833 323.901 163.296C323.908 163.76 323.733 164.208 323.413 164.545C323.094 164.882 322.654 165.082 322.189 165.101L315.234 165.31H315.179ZM329.088 164.894C328.614 164.9 328.157 164.719 327.816 164.391C327.476 164.062 327.281 163.612 327.275 163.14C327.268 162.668 327.45 162.212 327.78 161.874C328.11 161.535 328.562 161.341 329.036 161.334L335.99 161.127C336.226 161.118 336.461 161.155 336.683 161.237C336.904 161.319 337.106 161.444 337.279 161.605C337.451 161.765 337.59 161.958 337.687 162.172C337.785 162.386 337.838 162.617 337.845 162.852C337.852 163.087 337.813 163.321 337.729 163.54C337.644 163.76 337.517 163.96 337.355 164.131C337.192 164.301 336.997 164.438 336.781 164.533C336.566 164.628 336.333 164.679 336.097 164.684L329.143 164.894H329.088ZM342.997 164.477C342.523 164.484 342.066 164.303 341.726 163.974C341.386 163.645 341.191 163.195 341.184 162.723C341.177 162.251 341.359 161.796 341.689 161.457C342.02 161.118 342.472 160.924 342.946 160.918L349.9 160.71C350.136 160.701 350.371 160.739 350.592 160.821C350.813 160.903 351.016 161.027 351.188 161.188C351.361 161.348 351.5 161.541 351.597 161.755C351.694 161.969 351.748 162.2 351.755 162.435C351.762 162.67 351.722 162.904 351.638 163.124C351.554 163.343 351.427 163.544 351.264 163.714C351.102 163.885 350.907 164.021 350.691 164.116C350.475 164.211 350.242 164.263 350.006 164.268L343.053 164.475L342.997 164.477ZM356.907 164.06C356.433 164.067 355.975 163.886 355.635 163.557C355.295 163.228 355.1 162.778 355.094 162.306C355.087 161.834 355.268 161.379 355.599 161.04C355.929 160.702 356.381 160.508 356.855 160.501L363.809 160.293C364.045 160.284 364.28 160.322 364.501 160.404C364.723 160.486 364.925 160.611 365.098 160.771C365.27 160.932 365.409 161.124 365.506 161.339C365.604 161.553 365.657 161.784 365.664 162.019C365.671 162.254 365.632 162.487 365.547 162.707C365.463 162.927 365.336 163.127 365.174 163.298C365.011 163.468 364.816 163.605 364.6 163.7C364.385 163.795 364.152 163.846 363.916 163.851L356.962 164.059L356.907 164.06ZM370.816 163.644C370.582 163.647 370.349 163.605 370.13 163.518C369.912 163.432 369.713 163.304 369.545 163.141C369.376 162.978 369.242 162.784 369.148 162.57C369.055 162.355 369.006 162.124 369.002 161.891C368.999 161.657 369.041 161.425 369.128 161.207C369.215 160.99 369.343 160.792 369.507 160.624C369.67 160.457 369.865 160.323 370.081 160.23C370.297 160.137 370.528 160.088 370.763 160.084L377.717 159.875C377.952 159.866 378.187 159.904 378.408 159.986C378.629 160.069 378.831 160.193 379.004 160.354C379.176 160.514 379.314 160.706 379.412 160.92C379.509 161.134 379.562 161.365 379.57 161.6C379.577 161.834 379.537 162.068 379.453 162.287C379.369 162.506 379.243 162.707 379.081 162.877C378.918 163.048 378.724 163.185 378.509 163.28C378.293 163.375 378.061 163.427 377.825 163.433L370.872 163.642L370.816 163.644ZM384.724 163.225C384.259 163.219 383.814 163.033 383.484 162.705C383.155 162.378 382.967 161.935 382.96 161.472C382.953 161.008 383.129 160.56 383.448 160.223C383.768 159.886 384.207 159.687 384.673 159.668L391.626 159.458C391.862 159.45 392.097 159.488 392.318 159.57C392.539 159.652 392.741 159.777 392.913 159.937C393.085 160.097 393.224 160.29 393.321 160.504C393.418 160.718 393.472 160.948 393.479 161.183C393.486 161.418 393.447 161.651 393.363 161.871C393.279 162.09 393.152 162.29 392.99 162.461C392.828 162.631 392.634 162.768 392.418 162.863C392.203 162.959 391.971 163.011 391.735 163.016L384.779 163.225H384.724ZM398.634 162.809C398.16 162.816 397.702 162.635 397.362 162.306C397.022 161.977 396.827 161.528 396.819 161.056C396.812 160.584 396.994 160.128 397.324 159.789C397.654 159.451 398.106 159.256 398.58 159.249L405.536 159.042C405.772 159.033 406.007 159.07 406.228 159.152C406.449 159.234 406.652 159.359 406.825 159.52C406.997 159.68 407.136 159.873 407.233 160.087C407.33 160.301 407.384 160.532 407.391 160.767C407.398 161.002 407.358 161.236 407.274 161.455C407.19 161.675 407.063 161.876 406.9 162.046C406.738 162.216 406.543 162.353 406.327 162.448C406.111 162.543 405.879 162.594 405.643 162.6L398.689 162.809H398.634Z" fill="white"/>
<path d="M165.562 173.357C165.088 173.357 164.633 173.17 164.298 172.836C163.963 172.502 163.774 172.049 163.774 171.577V168.018C163.774 167.555 163.955 167.11 164.279 166.778C164.603 166.446 165.044 166.252 165.509 166.238L169.082 166.132C169.318 166.123 169.552 166.161 169.773 166.243C169.994 166.325 170.196 166.45 170.369 166.611C170.541 166.771 170.679 166.963 170.777 167.177C170.874 167.391 170.927 167.622 170.935 167.857C170.942 168.091 170.902 168.325 170.818 168.544C170.734 168.763 170.608 168.964 170.446 169.134C170.283 169.305 170.089 169.442 169.874 169.537C169.658 169.632 169.426 169.684 169.19 169.69L167.35 169.745V171.577C167.35 172.049 167.161 172.502 166.826 172.836C166.491 173.17 166.036 173.357 165.562 173.357Z" fill="white"/>
<path d="M165.562 188.603C165.088 188.603 164.633 188.415 164.298 188.081C163.963 187.748 163.774 187.295 163.774 186.823V179.2C163.774 178.728 163.963 178.275 164.298 177.942C164.633 177.608 165.088 177.42 165.562 177.42C166.036 177.42 166.491 177.608 166.826 177.942C167.161 178.275 167.35 178.728 167.35 179.2V186.823C167.35 187.295 167.161 187.748 166.826 188.081C166.491 188.415 166.036 188.603 165.562 188.603Z" fill="white"/>
<path d="M165.562 199.787C165.088 199.787 164.633 199.599 164.298 199.265C163.963 198.932 163.774 198.479 163.774 198.007V194.448C163.774 193.976 163.963 193.523 164.298 193.189C164.633 192.855 165.088 192.668 165.562 192.668C166.036 192.668 166.491 192.855 166.826 193.189C167.161 193.523 167.35 193.976 167.35 194.448V198.007C167.35 198.479 167.161 198.932 166.826 199.265C166.491 199.599 166.036 199.787 165.562 199.787Z" fill="white"/>
<path d="M325.701 110.735C325.227 110.735 324.772 110.547 324.437 110.213C324.101 109.879 323.913 109.427 323.913 108.955V105.395C323.913 104.923 324.101 104.471 324.437 104.137C324.772 103.803 325.227 103.616 325.701 103.616C326.175 103.616 326.629 103.803 326.965 104.137C327.3 104.471 327.488 104.923 327.488 105.395V108.955C327.488 109.189 327.442 109.42 327.353 109.636C327.263 109.852 327.131 110.048 326.965 110.214C326.799 110.379 326.602 110.51 326.385 110.599C326.168 110.689 325.935 110.735 325.701 110.735Z" fill="white"/>
<path d="M325.701 154.09C325.226 154.089 324.772 153.901 324.437 153.567C324.101 153.233 323.913 152.78 323.913 152.308V145.083C323.913 144.611 324.101 144.158 324.437 143.825C324.772 143.491 325.227 143.303 325.701 143.303C326.175 143.303 326.629 143.491 326.965 143.825C327.3 144.158 327.488 144.611 327.488 145.083V152.308C327.488 152.542 327.442 152.774 327.353 152.99C327.263 153.206 327.131 153.402 326.965 153.568C326.799 153.733 326.602 153.864 326.385 153.954C326.168 154.043 325.936 154.09 325.701 154.09ZM325.701 139.638C325.466 139.638 325.233 139.592 325.017 139.502C324.8 139.413 324.603 139.282 324.437 139.116C324.271 138.951 324.139 138.755 324.049 138.539C323.959 138.323 323.913 138.092 323.913 137.858V130.631C323.913 130.159 324.101 129.707 324.437 129.373C324.772 129.039 325.227 128.852 325.701 128.852C326.175 128.852 326.629 129.039 326.965 129.373C327.3 129.707 327.488 130.159 327.488 130.631V137.858C327.488 138.092 327.442 138.323 327.352 138.539C327.262 138.755 327.131 138.951 326.965 139.116C326.799 139.282 326.602 139.413 326.385 139.502C326.168 139.592 325.935 139.638 325.701 139.638ZM325.701 125.186C325.227 125.186 324.772 124.998 324.437 124.665C324.101 124.331 323.913 123.878 323.913 123.406V116.181C323.913 115.709 324.101 115.256 324.437 114.923C324.772 114.589 325.227 114.401 325.701 114.401C326.175 114.401 326.629 114.589 326.965 114.923C327.3 115.256 327.488 115.709 327.488 116.181V123.411C327.487 123.882 327.298 124.334 326.963 124.666C326.628 124.999 326.174 125.186 325.701 125.186Z" fill="white"/>
<path d="M325.701 164.874C325.227 164.874 324.772 164.686 324.437 164.352C324.101 164.019 323.913 163.566 323.913 163.094V159.535C323.913 159.063 324.101 158.61 324.437 158.276C324.772 157.942 325.227 157.755 325.701 157.755C326.175 157.755 326.629 157.942 326.965 158.276C327.3 158.61 327.488 159.063 327.488 159.535V163.094C327.488 163.566 327.3 164.019 326.965 164.352C326.629 164.686 326.175 164.874 325.701 164.874Z" fill="white"/>
<path d="M230.927 112.206C230.453 112.206 229.998 112.018 229.663 111.684C229.327 111.351 229.139 110.898 229.139 110.426V106.867C229.139 106.395 229.327 105.942 229.663 105.608C229.998 105.274 230.453 105.087 230.927 105.087C231.401 105.087 231.855 105.274 232.191 105.608C232.526 105.942 232.714 106.395 232.714 106.867V110.426C232.714 110.898 232.526 111.351 232.191 111.684C231.855 112.018 231.401 112.206 230.927 112.206Z" fill="white"/>
<path d="M230.927 156.624C230.453 156.624 229.998 156.437 229.663 156.103C229.327 155.769 229.139 155.317 229.139 154.845V147.441C229.139 146.969 229.327 146.517 229.663 146.183C229.998 145.849 230.453 145.662 230.927 145.662C231.401 145.662 231.855 145.849 232.191 146.183C232.526 146.517 232.714 146.969 232.714 147.441V154.845C232.714 155.317 232.526 155.769 232.191 156.103C231.855 156.437 231.401 156.624 230.927 156.624ZM230.927 141.818C230.453 141.818 229.998 141.63 229.663 141.296C229.327 140.963 229.139 140.51 229.139 140.038V132.635C229.139 132.163 229.327 131.71 229.663 131.376C229.998 131.042 230.453 130.855 230.927 130.855C231.401 130.855 231.855 131.042 232.191 131.376C232.526 131.71 232.714 132.163 232.714 132.635V140.041C232.713 140.513 232.525 140.965 232.189 141.298C231.854 141.631 231.4 141.818 230.927 141.818ZM230.927 127.011C230.692 127.011 230.459 126.965 230.242 126.876C230.025 126.787 229.828 126.655 229.662 126.49C229.496 126.325 229.365 126.129 229.275 125.912C229.185 125.696 229.139 125.465 229.139 125.231V117.829C229.139 117.357 229.327 116.905 229.663 116.571C229.998 116.237 230.453 116.05 230.927 116.05C231.401 116.05 231.855 116.237 232.191 116.571C232.526 116.905 232.714 117.357 232.714 117.829V125.231C232.714 125.703 232.526 126.156 232.191 126.49C231.855 126.823 231.401 127.011 230.927 127.011Z" fill="white"/>
<path d="M230.927 167.588C230.692 167.588 230.459 167.542 230.242 167.452C230.025 167.363 229.828 167.231 229.662 167.066C229.496 166.9 229.364 166.704 229.275 166.488C229.185 166.272 229.139 166.04 229.139 165.806V162.247C229.139 161.775 229.327 161.322 229.663 160.989C229.998 160.655 230.453 160.467 230.927 160.467C231.401 160.467 231.855 160.655 232.191 160.989C232.526 161.322 232.714 161.775 232.714 162.247V165.806C232.714 166.279 232.526 166.731 232.191 167.065C231.856 167.399 231.401 167.587 230.927 167.588Z" fill="white"/>
<path d="M388.113 48.1938C403.543 34.6129 427.549 36.0617 441.784 50.6387C455.589 64.7854 455.589 86.6989 441.784 100.323C427.558 114.363 403.543 114.905 388.113 100.743C372.185 86.1212 372.185 62.2136 388.113 48.1938Z" fill="url(#paint4_linear_414_8)"/>
<path d="M389.754 46.3597C405.172 32.7908 429.17 34.255 443.384 48.8286C457.178 62.9736 457.178 84.8803 443.384 98.4937C429.168 112.522 405.171 113.054 389.753 98.8898C373.839 84.2647 373.839 60.3675 389.754 46.3597Z" fill="url(#paint5_linear_414_8)"/>
<g style="mix-blend-mode:soft-light" opacity="0.5">
<path d="M393.631 50.2962C406.777 38.7127 427.265 39.9215 439.423 52.3622C451.226 64.4463 451.226 83.1742 439.423 94.8022C427.27 106.775 406.782 107.2 393.636 95.1005C380.074 82.6238 380.074 62.2499 393.631 50.2962Z" fill="white"/>
</g>
<g style="mix-blend-mode:soft-light" opacity="0.3">
<path d="M391.993 53.0113C405.15 41.4073 425.652 42.6109 437.815 55.0499C447.361 64.8125 449.181 78.9077 443.326 90.09C451.039 78.5648 449.744 62.9282 439.422 52.3701C427.269 39.9276 406.781 38.7103 393.635 50.3023C390.896 52.7057 388.614 55.5806 386.899 58.7893C388.346 56.6575 390.058 54.7161 391.993 53.0113Z" fill="white"/>
</g>
<path d="M429.47 80.5479C429.47 87.8244 423.503 93.803 416.118 93.9008C408.713 93.9985 402.686 88.1416 402.686 80.8188C402.686 73.496 416.118 52.3574 416.118 52.3574C416.118 52.3574 429.47 73.2765 429.47 80.5479Z" fill="white"/>
<path d="M296.27 48.4308C312.358 34.5636 337.392 36.0433 352.221 50.9255C366.607 65.3636 366.607 87.7333 352.221 101.647C337.392 115.985 312.358 116.548 296.27 102.091C279.658 87.164 279.658 62.749 296.27 48.4308Z" fill="url(#paint6_linear_414_8)"/>
<path d="M297.981 46.5562C314.057 32.701 339.072 34.1909 353.888 49.0731C368.264 63.513 368.264 85.8741 353.888 99.7756C339.077 114.102 314.057 114.654 297.981 100.196C281.383 85.2688 281.383 60.8623 297.981 46.5562Z" fill="url(#paint7_linear_414_8)"/>
<g style="mix-blend-mode:soft-light" opacity="0.5">
<path d="M302.023 50.5766C315.729 38.7463 337.087 39.9825 349.755 52.6838C362.056 65.0182 362.056 84.1353 349.755 96.0103C337.087 108.237 315.729 108.677 302.023 96.3274C287.886 83.5901 287.886 62.7842 302.023 50.5766Z" fill="white"/>
</g>
<g style="mix-blend-mode:soft-light" opacity="0.3">
<path d="M300.315 53.3493C314.031 41.5001 335.406 42.7295 348.083 55.4274C358.033 65.394 359.936 79.7738 353.822 91.1995C361.861 79.4309 360.511 63.4685 349.755 52.6841C337.087 39.9828 315.729 38.7397 302.023 50.5769C299.175 53.0221 296.797 55.9609 295.002 59.2508C296.517 57.0691 298.302 55.0863 300.315 53.3493Z" fill="white"/>
</g>
<path d="M314.399 60.5916C311.929 60.6396 309.899 62.8205 309.895 65.4832L309.873 87.1481C309.873 89.7868 311.89 91.8802 314.351 91.8202C316.811 91.7602 318.828 89.5793 318.837 86.9441L318.881 65.3066C318.892 62.6576 316.87 60.5453 314.399 60.5916Z" fill="white"/>
<path d="M304.862 65.3473H304.898C303.19 65.3816 301.884 66.9024 301.884 68.7352V74.2029L301.196 74.232C300.147 74.2543 299.436 75.1956 299.436 76.3186V76.4232C299.436 77.5462 300.147 78.4275 301.194 78.4035L301.883 78.3744V84.2312C301.883 86.0572 303.26 87.5043 304.962 87.4649L304.853 87.4494C306.556 87.41 307.781 85.8858 307.781 84.0615L307.796 68.5981C307.798 66.7583 306.569 65.313 304.862 65.3473Z" fill="white"/>
<path d="M336.978 60.1712C334.525 60.2175 332.586 62.4001 332.576 65.0474L332.5 86.642C332.49 89.2721 334.408 91.3519 336.852 91.2919C339.295 91.2319 341.223 89.0527 341.235 86.4277L341.331 64.8656C341.343 62.2252 339.426 60.1232 336.978 60.1712Z" fill="white"/>
<path d="M350.019 73.1745L349.502 73.2174L349.531 67.8028C349.54 65.9837 348.14 64.5298 346.454 64.5641H346.38C344.692 64.5966 343.28 66.1072 343.28 67.9211L343.21 83.3057C343.201 85.1214 344.567 86.5633 346.249 86.5222H346.34C348.023 86.4828 349.44 84.9791 349.449 83.172L349.48 77.3563L349.996 77.3134C351.03 77.2911 351.576 76.3447 351.582 75.2302V75.1274C351.596 74.0215 351.052 73.1591 350.019 73.1745Z" fill="white"/>
<path d="M320.536 79.2202L330.833 78.9682L330.852 72.7393L320.548 72.9793L320.536 79.2202Z" fill="white"/>
<path d="M200.458 48.6778C217.247 34.5123 243.366 36.0228 258.838 51.2222C273.843 65.9673 273.843 88.8135 258.838 103.025C243.368 117.676 217.249 118.261 200.458 103.497C183.12 88.2529 183.12 63.308 200.458 48.6778Z" fill="url(#paint8_linear_414_8)"/>
<path d="M202.245 46.7704C219.02 32.6169 245.125 34.1377 260.576 49.3422C275.57 64.0873 275.57 86.925 260.576 101.121C245.12 115.76 219.02 116.333 202.245 101.569C184.92 86.3146 184.92 61.38 202.245 46.7704Z" fill="url(#paint9_linear_414_8)"/>
<g style="mix-blend-mode:soft-light" opacity="0.5">
<path d="M206.462 50.8693C220.766 38.7766 243.05 40.0454 256.264 53.0176C269.095 65.6143 269.095 85.1395 256.264 97.2682C243.05 109.76 220.766 110.22 206.462 97.6111C191.709 84.5977 191.709 63.3425 206.462 50.8693Z" fill="white"/>
</g>
<g style="mix-blend-mode:soft-light" opacity="0.3">
<path d="M204.679 53.7022C218.994 41.5975 241.295 42.8526 254.521 55.8213C264.898 65.9989 266.884 80.6942 260.507 92.3548C268.892 80.3342 267.485 64.0323 256.264 53.0181C243.05 40.0459 220.766 38.7771 206.462 50.8698C203.499 53.3564 201.016 56.3596 199.134 59.7322C200.719 57.4968 202.582 55.4706 204.679 53.7022Z" fill="white"/>
</g>
<path d="M244.972 92.9964L251.318 92.9913V59.8663L244.972 59.7549V92.9964Z" fill="white"/>
<path d="M233.577 93.0056L240.004 93.0005V76.3334L233.577 76.2803V93.0056Z" fill="white"/>
<path d="M222.034 93.0135L228.544 93.0083V56.2846L222.034 56.1577V93.0135Z" fill="white"/>
<path d="M210.347 93.024L216.941 93.0189V61.5416L210.347 61.4336V93.024Z" fill="white"/>
<path d="M291.467 309.095C285.907 315.012 279.055 323.94 274.892 336.185C271.188 347.076 271.661 354.567 266.724 356.682C260.599 359.307 253.652 350.44 244.015 345.546C234.218 340.574 217.806 337.755 189.443 349.934C189.098 351.059 188.76 352.183 188.427 353.308C207.322 367.168 224.565 375.866 237.235 381.317C268.522 394.778 279.363 391.644 284.35 389.416C292.082 385.962 296.029 380.088 299.949 374.546C309.123 361.576 322.958 343.633 343.499 321.779L291.467 309.095Z" fill="url(#paint10_linear_414_8)"/>
<path d="M192.865 350.002C192.865 350.002 188.937 341.802 186.564 340.79C184.191 339.779 167.03 364.348 167.03 364.348C167.03 364.348 167.645 366.045 173.919 362.764C180.192 359.482 192.84 353.214 192.865 350.002Z" fill="url(#paint11_linear_414_8)"/>
<path d="M361.345 287.957C375.122 292.111 398.394 301.73 407.387 322.934C411.097 331.678 411.913 341.293 403.616 381.787C398.663 405.962 393.44 426.597 388.964 442.825L385.017 443.752C379.72 435.721 375.684 426.933 373.047 417.691C368.097 400.306 369.473 385.972 370.104 380.986C372.218 364.266 377.509 361.346 377.175 353.61C376.691 342.546 364.948 327.559 314.516 310.793L361.345 287.957Z" fill="url(#paint12_linear_414_8)"/>
<path d="M382.885 441.818C382.885 441.818 381.488 450.795 382.874 452.962C384.261 455.13 412.346 444.467 412.346 444.467C412.346 444.467 412.801 442.72 405.766 441.912C398.731 441.105 384.725 439.179 382.885 441.818Z" fill="url(#paint13_linear_414_8)"/>
<path d="M358.794 186.255C364.901 183.31 376.735 196.213 377.307 196.848C391.248 212.279 385.692 227.435 395.525 231.814C400.282 233.932 401.37 230.29 427.636 223.346C429.899 222.749 434.287 221.613 438.637 218.098C442.394 215.06 444.526 211.535 445.697 209.204C446.164 209.177 451.577 208.918 452.575 211.288C453.557 213.618 449.715 217.16 447.731 218.989C445.75 220.831 443.519 222.386 441.103 223.608C433.463 227.337 428.726 235.123 422.938 241.196C419.08 245.246 406.144 258.827 392.482 258.136C375.778 257.291 365.345 235.459 362.316 229.114C354.248 212.236 351.89 189.592 358.794 186.255Z" fill="url(#paint14_linear_414_8)"/>
<path d="M286.721 287.158C287.537 289.995 289.932 299.684 285.19 310.189C282.817 315.388 279.14 319.892 274.513 323.266C278.92 324.042 283.232 325.281 287.377 326.962C311.042 336.579 319.971 357.216 330.774 354.311C332.152 353.939 334.168 353.022 336.231 350.407L348.739 312.13L286.721 287.158Z" fill="url(#paint15_linear_414_8)"/>
<path d="M285.026 283.782C283.209 290.703 289.693 298.122 294.856 304.03C302.543 312.828 309.515 314.817 329.09 326.64C335.978 330.8 341.489 334.398 345.021 336.764C358.769 331.346 368.137 324.456 373.832 319.554C380.447 313.86 393.14 302.933 390.44 295.255C389.104 291.456 384.733 290.547 376.878 287.437C359.333 280.493 357.074 275.507 346.991 271.382C323.133 261.625 288.582 270.237 285.026 283.782Z" fill="url(#paint16_linear_414_8)"/>
<path d="M313.837 183.557C308.58 187.719 307.34 192.25 301.505 208.835C289.815 242.054 271.494 299.285 274.18 300.993C277.244 302.941 281.424 296.273 295.74 289.218C300.815 286.718 320.073 277.226 342.987 279.059C358.92 280.333 367.641 286.365 370.78 282.433C373.734 278.735 366.336 273.003 364.019 260.497C360.734 242.759 372.437 237.077 371.557 213.212C371.301 206.241 370.96 199.408 366.375 192.668C359.315 182.292 347.355 179.724 343.552 178.907C340.141 178.175 324.798 174.883 313.837 183.557Z" fill="url(#paint17_linear_414_8)"/>
<path d="M350.668 165.589C348.345 168.478 345.581 170.986 342.477 173.023C335.899 177.309 331.203 177.138 331.091 178.827C330.846 182.496 352.874 187.881 354.394 184.557C355.199 182.798 349.559 180.138 349.767 175.437C349.924 171.888 353.327 169.131 356.208 167.345L350.668 165.589Z" fill="url(#paint18_linear_414_8)"/>
<path style="mix-blend-mode:multiply" opacity="0.3" d="M335.853 240.758C331.416 228.756 317.34 229.39 310.059 220.214C306.219 215.374 303.859 207.28 307.336 192.797C305.798 196.437 304.109 201.433 301.505 208.835C289.815 242.054 271.494 299.285 274.18 300.995C277.244 302.941 281.424 296.273 295.74 289.218C300.319 286.961 316.45 279.016 336.393 278.833C334.447 275.006 333.567 271.486 333.273 268.364C332.155 256.499 339.469 250.546 335.853 240.758Z" fill="url(#paint19_linear_414_8)"/>
<path d="M357.047 162.945C358.523 161.084 358.69 157.78 357.09 155.651C355.712 153.82 353.484 153.511 352.151 153.326C348.285 152.789 343.356 154.286 341.572 157.798C340.514 159.879 342.591 164.302 342.913 165.096C343.278 165.995 343.972 166.317 344.604 167.003C345.481 167.956 346.854 169.472 349.092 172.004C349.329 171.113 349.645 170.243 350.034 169.407C350.54 168.319 351.183 167.3 351.948 166.374C354.026 163.968 355.647 164.707 357.047 162.945Z" fill="url(#paint20_linear_414_8)"/>
<path d="M345.864 169.843C345.864 169.843 348.313 174.064 353.395 173.855C357.943 173.667 358.849 163.542 355.999 161.322C355.048 160.581 353.116 160.237 351.521 160.636C350.585 160.874 350.259 161.252 348.721 161.612C347.302 161.943 346.908 161.783 346.472 162.126C345.93 162.56 345.513 163.645 346.333 166.63C345.487 165.737 344.454 165.377 343.71 165.706C343.454 165.836 343.239 166.034 343.09 166.279C342.437 167.424 343.464 168.928 345.864 169.843Z" fill="url(#paint21_linear_414_8)"/>
<path d="M332.978 183.451C335.599 188.671 326.737 201.145 315.532 206.167C307.56 209.741 303.305 207.341 280.917 211.653C273.934 212.997 269.1 214.242 266.832 218.232C265.234 221.045 266.405 222.638 266.536 231.904C266.596 236.18 266.536 241.848 266.104 249.551C265.742 255.928 266.429 259.175 267.698 261.591C270.211 266.374 273.982 267.331 273.998 271.021C274.008 273.807 271.883 276.775 269.865 276.881C267.507 277.008 265.549 273.222 264.009 269.905C262.868 267.455 262.077 264.858 261.659 262.189C260.474 253.802 254.514 246.899 250.512 239.535C245.173 229.702 239.853 215.079 243.795 205.452C248.13 194.88 261.659 191.907 288.703 185.944C308.479 181.609 329.706 176.934 332.978 183.451Z" fill="url(#paint22_linear_414_8)"/>
<defs>
<linearGradient id="paint0_linear_414_8" x1="181.324" y1="-37.3134" x2="153.816" y2="200.351" gradientUnits="userSpaceOnUse">
<stop stop-color="#444B8C"/>
<stop offset="0.48" stop-color="#35396E"/>
<stop offset="1" stop-color="#26264F"/>
</linearGradient>
<linearGradient id="paint1_linear_414_8" x1="168.973" y1="290.504" x2="187.743" y2="625.368" gradientUnits="userSpaceOnUse">
<stop stop-color="#444B8C"/>
<stop offset="1" stop-color="#26264F"/>
</linearGradient>
<linearGradient id="paint2_linear_414_8" x1="237.331" y1="135.613" x2="95.4474" y2="351.517" gradientUnits="userSpaceOnUse">
<stop stop-color="#FF9085"/>
<stop offset="1" stop-color="#FB6FBB"/>
</linearGradient>
<linearGradient id="paint3_linear_414_8" x1="74.678" y1="251.391" x2="257.882" y2="244.03" gradientUnits="userSpaceOnUse">
<stop stop-color="#FF9085"/>
<stop offset="1" stop-color="#FB6FBB"/>
</linearGradient>
<linearGradient id="paint4_linear_414_8" x1="362.878" y1="88.948" x2="489.588" y2="54.0333" gradientUnits="userSpaceOnUse">
<stop stop-color="#444B8C"/>
<stop offset="1" stop-color="#26264F"/>
</linearGradient>
<linearGradient id="paint5_linear_414_8" x1="-814.228" y1="4868.31" x2="-832.074" y2="4938.5" gradientUnits="userSpaceOnUse">
<stop stop-color="#E38DDD"/>
<stop offset="1" stop-color="#9571F6"/>
</linearGradient>
<linearGradient id="paint6_linear_414_8" x1="270.021" y1="90.3245" x2="401.957" y2="53.9698" gradientUnits="userSpaceOnUse">
<stop stop-color="#444B8C"/>
<stop offset="1" stop-color="#26264F"/>
</linearGradient>
<linearGradient id="paint7_linear_414_8" x1="-932.465" y1="4976.52" x2="-950.711" y2="5048.28" gradientUnits="userSpaceOnUse">
<stop stop-color="#E38DDD"/>
<stop offset="1" stop-color="#9571F6"/>
</linearGradient>
<linearGradient id="paint8_linear_414_8" x1="173.128" y1="91.7721" x2="310.631" y2="53.8834" gradientUnits="userSpaceOnUse">
<stop stop-color="#444B8C"/>
<stop offset="1" stop-color="#26264F"/>
</linearGradient>
<linearGradient id="paint9_linear_414_8" x1="-1055.89" y1="5089.83" x2="-1074.56" y2="5163.23" gradientUnits="userSpaceOnUse">
<stop stop-color="#E38DDD"/>
<stop offset="1" stop-color="#9571F6"/>
</linearGradient>
<linearGradient id="paint10_linear_414_8" x1="263.03" y1="432.793" x2="271.093" y2="168.571" gradientUnits="userSpaceOnUse">
<stop stop-color="#FFC444"/>
<stop offset="1" stop-color="#F36F56"/>
</linearGradient>
<linearGradient id="paint11_linear_414_8" x1="192.115" y1="319.753" x2="174.965" y2="373.116" gradientUnits="userSpaceOnUse">
<stop stop-color="#E38DDD"/>
<stop offset="1" stop-color="#9571F6"/>
</linearGradient>
<linearGradient id="paint12_linear_414_8" x1="358.874" y1="435.718" x2="366.936" y2="171.496" gradientUnits="userSpaceOnUse">
<stop stop-color="#FFC444"/>
<stop offset="1" stop-color="#F36F56"/>
</linearGradient>
<linearGradient id="paint13_linear_414_8" x1="414.454" y1="391.205" x2="397.305" y2="444.568" gradientUnits="userSpaceOnUse">
<stop stop-color="#E38DDD"/>
<stop offset="1" stop-color="#9571F6"/>
</linearGradient>
<linearGradient id="paint14_linear_414_8" x1="407.353" y1="263.063" x2="393.242" y2="38.3187" gradientUnits="userSpaceOnUse">
<stop stop-color="#FFC444"/>
<stop offset="1" stop-color="#F36F56"/>
</linearGradient>
<linearGradient id="paint15_linear_414_8" x1="323.167" y1="368.732" x2="309.383" y2="307.195" gradientUnits="userSpaceOnUse">
<stop stop-color="#AB316D"/>
<stop offset="1" stop-color="#792D3D"/>
</linearGradient>
<linearGradient id="paint16_linear_414_8" x1="284.714" y1="301.982" x2="390.812" y2="301.982" gradientUnits="userSpaceOnUse">
<stop stop-color="#AB316D"/>
<stop offset="1" stop-color="#792D3D"/>
</linearGradient>
<linearGradient id="paint17_linear_414_8" x1="375.909" y1="184.869" x2="288.236" y2="309.818" gradientUnits="userSpaceOnUse">
<stop stop-color="#AA80F9"/>
<stop offset="1" stop-color="#6165D7"/>
</linearGradient>
<linearGradient id="paint18_linear_414_8" x1="339.772" y1="196.025" x2="348.063" y2="155.741" gradientUnits="userSpaceOnUse">
<stop stop-color="#FFC444"/>
<stop offset="1" stop-color="#F36F56"/>
</linearGradient>
<linearGradient id="paint19_linear_414_8" x1="340.464" y1="221.797" x2="247.907" y2="292.168" gradientUnits="userSpaceOnUse">
<stop stop-color="#AA80F9"/>
<stop offset="1" stop-color="#6165D7"/>
</linearGradient>
<linearGradient id="paint20_linear_414_8" x1="339.241" y1="183.201" x2="351.215" y2="154.362" gradientUnits="userSpaceOnUse">
<stop stop-color="#311944"/>
<stop offset="1" stop-color="#6B3976"/>
</linearGradient>
<linearGradient id="paint21_linear_414_8" x1="348.804" y1="160.24" x2="349.966" y2="202.609" gradientUnits="userSpaceOnUse">
<stop stop-color="#FFC444"/>
<stop offset="1" stop-color="#F36F56"/>
</linearGradient>
<linearGradient id="paint22_linear_414_8" x1="292.404" y1="270.282" x2="278.293" y2="45.5354" gradientUnits="userSpaceOnUse">
<stop stop-color="#FFC444"/>
<stop offset="1" stop-color="#F36F56"/>
</linearGradient>
</defs>
</svg>
