<svg xmlns="http://www.w3.org/2000/svg" viewBox="0 0 34 28" xmlns:v="https://vecta.io/nano"><path d="M3.164 14.812l1.666 1.666 3.598-3.584-1.652-1.666-.756-.756a3.12 3.12 0 0 1-.924-2.24 3.05 3.05 0 0 1 .686-1.946c.588-.742 1.484-1.218 2.492-1.218a3.19 3.19 0 0 1 2.254.938l.742.714 1.666 1.68 3.612-3.584-1.68-1.666-.756-.728A8.22 8.22 0 0 0 8.274 0C3.696 0 0 3.696 0 8.246c0 1.134.224 2.212.644 3.206s1.022 1.876 1.778 2.618l.742.742z" fill="#ea4335"/><path d="m11.41 17.108 5.138-5.11-3.612-3.598-4.508 4.494-3.598 3.584 1.932 1.946 1.666 1.652 1.736-1.736" fill="#fbbc04"/><path d="M20.132 24.584l8.12-8.106-3.612-3.584-8.106 8.092-4.508-4.494-3.598 3.584 4.508 4.508-.014.014L16.534 28l3.612-3.416h-.014z" fill="#34a853"/><path d="M30.646 14.07c1.68-1.68 2.646-4.256 2.38-6.86-.392-3.948-3.668-6.916-7.644-7.182-2.506-.168-4.802.77-6.426 2.394L12.936 8.4l3.598 3.598 6.02-5.992c.728-.714 1.736-1.05 2.772-.882 1.344.21 2.436 1.316 2.618 2.66a3.17 3.17 0 0 1-.91 2.702l-2.394 2.408 3.612 3.584 2.394-2.408z" fill="#4285f4"/></svg>